<svg width="791" height="444" viewBox="0 0 791 444" fill="none" xmlns="http://www.w3.org/2000/svg">
<path fill-rule="evenodd" clip-rule="evenodd" d="M95.5 0H290.115C452.17 0 487.962 0.4975 505.608 3.73109C517.29 5.72098 533.944 9.70088 542.891 12.437C551.839 15.4218 567.995 22.1378 578.931 27.6101C589.867 32.8336 606.769 43.2807 616.214 50.4941C625.659 57.9565 640.077 71.6373 648.031 81.0891C655.984 90.541 667.662 108.202 673.628 120.638C679.593 133.076 687.052 151.98 689.787 162.924C694.011 178.844 695.253 190.535 695.5 220.134C695.5 247.744 694.506 261.923 691.276 274.857C688.788 284.309 683.822 300.228 680.34 309.681C676.61 319.133 668.409 335.052 661.944 344.504C655.485 353.956 641.319 370.373 630.63 380.571C619.693 390.77 604.78 402.958 597.324 407.187C589.867 411.664 574.954 419.126 564.018 424.101C553.082 428.827 532.949 435.294 519.279 438.279C494.424 444 493.43 444 96.7428 444V429.075L249.602 427.832V393.008H97.9855V378.084H183.238C229.966 378.084 249.602 378.084 249.602 378.084V361.689V360.672V340.773L197 340.773V325.849L249.602 325.849V283.402L351.507 283.563V360.672L469.5 361.689V442.884L488.5 442.226V361.689L502.77 356.052C521.992 348.458 539.116 336.422 553.063 321.169C554.299 319.818 555.405 318.616 556.313 317.64C563.024 310.676 571.475 298.487 575.203 291.025C578.931 283.563 584.151 270.629 586.636 262.42C589.619 252.471 591.11 239.038 591.11 222.622C591.11 203.718 589.619 193.271 585.393 179.092C582.163 168.894 575.948 154.218 571.475 146.757C567.001 139.294 557.307 127.603 550.099 121.136C542.643 114.42 528.724 105.217 519.279 100.491C509.834 95.7648 493.181 90.2922 482.493 88.3028C469.072 85.5662 465.31 84.5084 370.115 84.5084V0.070524L351.507 0.0360479V119.395L249.602 139.689V77.1093H224.747L207.012 113.176H96.7428V98.2519H195.995L214.939 60.9414H249.602V14.9244H234.286C234.286 14.9244 204.264 14.6757 198.548 14.9244L168.822 74.6221H96.7428V60.9414H158.243L181.082 14.9244C181.082 14.9244 150.43 14.9244 95.5 14.9244V0ZM95.5 136.807H142.725L178.5 179.092L249.602 179.092V154.219L198.548 154.219V139.689L249.602 139.689L351.507 119.395V283.563L193.678 283.314L159.183 340.773L97.9855 341.022V325.849H150.181L163.214 303.462C163.214 303.462 146.204 303.462 97.9855 303.462V288.538H170.065L183.735 266.151H249.602V237.546H96.7428V222.622H249.602V192.773H167.828L135.268 154.219H95.5V136.807Z" fill="white"/>
</svg>
